# xmcd CD database generated by RipIT
#
# Track frame offsets:
# 177
# 20337
# 51360
# 75075
# 95132
# 116605
# 132935
# 154857
# 175437
#
# Disc length: 2603 seconds
#
# Revision: 0
# Processed by: cddbd v1.5.2PL0 Copyright (c) Steve Scherf et al.
# Submitted via: RipIT 3.6.0 www.suwald.com/ripit/ripit.html on 2009-03-30 at 16:31
#
DISCID=6e0a2909
DTITLE=Bill Chinnock - Out On The Borderline
DYEAR=1992
DGENRE=Rock
TTITLE0=Africa
TTITLE1=Out On The Borderline
TTITLE2=One Heart, One World
TTITLE3=Take This Heart Of Mine
TTITLE4=Lay Down Your Love
TTITLE5=This Is Love
TTITLE6=In The Arms Of Strangers
TTITLE7=Waves On The Water
TTITLE8=Tornado Season
EXTD=
EXTT0=
EXTT1=
EXTT2=
EXTT3=
EXTT4=
EXTT5=
EXTT6=
EXTT7=
EXTT8=
PLAYORDER=
